<svg width="512" height="512" viewBox="0 0 512 512" fill="none" xmlns="http://www.w3.org/2000/svg">
  <!-- Background avec gradient -->
  <rect width="512" height="512" rx="100" fill="url(#gradient)"/>
  
  <!-- Définition du gradient -->
  <defs>
    <linearGradient id="gradient" x1="0%" y1="0%" x2="100%" y2="100%">
      <stop offset="0%" style="stop-color:#8B5CF6;stop-opacity:1" />
      <stop offset="50%" style="stop-color:#3B82F6;stop-opacity:1" />
      <stop offset="100%" style="stop-color:#06B6D4;stop-opacity:1" />
    </linearGradient>
  </defs>
  
  <!-- Lettre S stylisée -->
  <path d="M 170 160 Q 170 120 210 120 L 300 120 Q 340 120 340 160 L 340 180 Q 340 220 300 220 L 250 220 L 250 240 L 250 260 Q 250 280 270 280 L 300 280 Q 340 280 340 320 L 340 350 Q 340 390 300 390 L 210 390 Q 170 390 170 350 L 170 330" 
        stroke="white" 
        stroke-width="20" 
        fill="none" 
        stroke-linecap="round" 
        stroke-linejoin="round"/>
  
  <!-- Points décoratifs -->
  <circle cx="400" cy="140" r="8" fill="white" opacity="0.8"/>
  <circle cx="420" cy="180" r="6" fill="white" opacity="0.6"/>
  <circle cx="110" cy="350" r="8" fill="white" opacity="0.8"/>
  <circle cx="90" cy="310" r="6" fill="white" opacity="0.6"/>
  
  <!-- Éléments "swap" décoratifs -->
  <path d="M 380 300 L 400 280 L 380 260" 
        stroke="white" 
        stroke-width="6" 
        fill="none" 
        stroke-linecap="round" 
        stroke-linejoin="round" 
        opacity="0.7"/>
  <path d="M 130 250 L 110 270 L 130 290" 
        stroke="white" 
        stroke-width="6" 
        fill="none" 
        stroke-linecap="round" 
        stroke-linejoin="round" 
        opacity="0.7"/>
</svg>
